<svg xmlns="http://www.w3.org/2000/svg" viewBox="-26 -26 132 128" width="32" height="32">
  <!-- Dark rounded background -->
  <rect x="-22" y="-22" width="124" height="120" rx="14" fill="#1A1410"/>
  <!-- Swarm particles -->
  <circle cx="-4"  cy="0"   r="2.2" fill="#C97B1E" opacity=".75"/>
  <circle cx="41"  cy="-16" r="1.6" fill="#C97B1E" opacity=".6"/>
  <circle cx="86"  cy="8"   r="1.8" fill="#C97B1E" opacity=".65"/>
  <circle cx="-9"  cy="20"  r="1.5" fill="#C97B1E" opacity=".55"/>
  <circle cx="93"  cy="40"  r="1.8" fill="#C97B1E" opacity=".5"/>
  <circle cx="-7"  cy="62"  r="1.9" fill="#C97B1E" opacity=".6"/>
  <circle cx="14"  cy="80"  r="1.7" fill="#C97B1E" opacity=".55"/>
  <circle cx="57"  cy="82"  r="1.6" fill="#C97B1E" opacity=".5"/>
  <circle cx="87"  cy="58"  r="1.4" fill="#C97B1E" opacity=".5"/>
  <circle cx="38"  cy="-22" r="1.1" fill="#C97B1E" opacity=".4"/>
  <!-- W mark -->
  <path d="M 6,4 C 9,26 14,52 20,72 C 25,60 33,40 40,26 C 47,13 55,60 60,70 C 66,50 71,26 74,5"
    fill="none" stroke="#C97B1E" stroke-width="11"
    stroke-linecap="round" stroke-linejoin="round"/>
</svg>
